<svg xmlns="http://www.w3.org/2000/svg" viewBox="0 0 32 32">
  <defs>
    <filter id="soft-shadow-lock" x="-50%" y="-50%" width="200%" height="200%">
      <feGaussianBlur in="SourceAlpha" stdDeviation="1" result="blur"/>
      <feOffset in="blur" dx="0" dy="1" result="offsetBlur"/>
      <feComponentTransfer><feFuncA type="linear" slope="0.2"/></feComponentTransfer>
      <feMerge><feMergeNode/><feMergeNode in="SourceGraphic"/></feMerge>
    </filter>
    <linearGradient id="seat-gradient-lock" x1="0%" y1="0%" x2="0%" y2="100%">
      <stop offset="0%" style="stop-color:#6B7280;stop-opacity:1" />
      <stop offset="100%" style="stop-color:#4B5563;stop-opacity:1" />
    </linearGradient>
  </defs>
  <g filter="url(#soft-shadow-lock)">
    <path d="M7 6C7 3.5 9 2 16 2C23 2 25 3.5 25 6V16H7V6Z" fill="url(#seat-gradient-lock)"/>
    <rect x="5" y="15" width="22" height="10" rx="3" fill="#374151"/>
    <rect x="4" y="10" width="3" height="12" rx="1.5" fill="#1F2937"/>
    <rect x="25" y="10" width="3" height="12" rx="1.5" fill="#1F2937"/>
    <path d="M16 8 C14.5 8 13.5 9 13.5 10.5 V12 H18.5 V10.5 C18.5 9 17.5 8 16 8 Z" fill="#D1D5DB" transform="translate(0, 1)"/>
    <rect x="12.5" y="13" width="7" height="6" rx="1" fill="#D1D5DB"/>
  </g>
</svg>