<svg xmlns="http://www.w3.org/2000/svg" viewBox="0 0 64 32">
  <defs>
    <filter id="soft-shadow-handicap" x="-50%" y="-50%" width="200%" height="200%">
      <feGaussianBlur in="SourceAlpha" stdDeviation="1" result="blur"/>
      <feOffset in="blur" dx="0" dy="1" result="offsetBlur"/>
      <feComponentTransfer><feFuncA type="linear" slope="0.2"/></feComponentTransfer>
      <feMerge><feMergeNode/><feMergeNode in="SourceGraphic"/></feMerge>
    </filter>
    <linearGradient id="seat-gradient-handicap" x1="0%" y1="0%" x2="0%" y2="100%">
      <stop offset="0%" style="stop-color:#F59E0B;stop-opacity:1" />
      <stop offset="100%" style="stop-color:#D97706;stop-opacity:1" />
    </linearGradient>
  </defs>
  <g filter="url(#soft-shadow-handicap)">
    <!-- Backrest (Double width) -->
    <path d="M7 6C7 3.5 9 2 16 2 H48 C55 2 57 3.5 57 6 V16 H7 V6 Z" fill="url(#seat-gradient-handicap)"/>
    <!-- Seat Cushion -->
    <rect x="5" y="15" width="54" height="10" rx="3" fill="#B45309"/>
    <!-- Armrests -->
    <rect x="4" y="10" width="3" height="12" rx="1.5" fill="#92400E"/>
    <rect x="57" y="10" width="3" height="12" rx="1.5" fill="#92400E"/>
    
    <!-- Wheelchair Icon -->
    <g transform="translate(26, 8)" stroke="#FEF3C7" stroke-width="2" fill="none">
        <circle cx="6" cy="6" r="5" />
        <path d="M6 6 V1 L10 -1" stroke-linecap="round"/>
        <circle cx="10" cy="-2" r="1.5" fill="#FEF3C7" stroke="none"/>
    </g>
    <!-- Lock Icon on right -->
    <g transform="translate(48, 6)">
         <path d="M4 2 C2.5 2 1.5 3 1.5 4.5 V6 H6.5 V4.5 C6.5 3 5.5 2 4 2 Z" fill="#78350F"/>
         <rect x="0.5" y="7" width="7" height="6" rx="1" fill="#78350F"/>
    </g>
  </g>
</svg>